<?xml version="1.0" encoding="UTF-8" standalone="no"?>
<!-- Created with Inkscape (http://www.inkscape.org/) -->

<svg
   width="187.58958"
   height="210.93378"
   viewBox="0 0 187.58958 210.93378"
   version="1.1"
   id="svg5"
   xml:space="preserve"
   inkscape:version="1.2.2 (b0a8486541, 2022-12-01)"
   sodipodi:docname="icoGame.svg"
   xmlns:inkscape="http://www.inkscape.org/namespaces/inkscape"
   xmlns:sodipodi="http://sodipodi.sourceforge.net/DTD/sodipodi-0.dtd"
   xmlns="http://www.w3.org/2000/svg"
   xmlns:svg="http://www.w3.org/2000/svg"
   xmlns:rdf="http://www.w3.org/1999/02/22-rdf-syntax-ns#"
   xmlns:cc="http://creativecommons.org/ns#"><sodipodi:namedview
     id="namedview7"
     pagecolor="#a3a3a3"
     bordercolor="#666666"
     borderopacity="1.0"
     inkscape:showpageshadow="2"
     inkscape:pageopacity="0.09803922"
     inkscape:pagecheckerboard="true"
     inkscape:deskcolor="#848484"
     inkscape:document-units="px"
     showgrid="false"
     inkscape:zoom="2.8284271"
     inkscape:cx="164.5791"
     inkscape:cy="135.94128"
     inkscape:window-width="1908"
     inkscape:window-height="1045"
     inkscape:window-x="4"
     inkscape:window-y="27"
     inkscape:window-maximized="0"
     inkscape:current-layer="layer6"><sodipodi:guide
       position="0,210.93376"
       orientation="0,709.00299"
       id="guide3668"
       inkscape:locked="false" /><sodipodi:guide
       position="709.003,210.93376"
       orientation="797.23401,0"
       id="guide3670"
       inkscape:locked="false" /><sodipodi:guide
       position="709.003,-586.30023"
       orientation="0,-709.00299"
       id="guide3672"
       inkscape:locked="false" /><sodipodi:guide
       position="0,-586.30023"
       orientation="-797.23401,0"
       id="guide3674"
       inkscape:locked="false" /></sodipodi:namedview><defs
     id="defs2"><linearGradient
       id="linearGradient2957"
       inkscape:swatch="solid"><stop
         style="stop-color:#000000;stop-opacity:1;"
         offset="0"
         id="stop2955" /></linearGradient></defs><g
     inkscape:groupmode="layer"
     id="layer6"
     inkscape:label="Background"><rect
       style="fill:#000000;fill-opacity:1;fill-rule:nonzero;stroke-width:0.344042"
       id="rect1440"
       width="187.58958"
       height="210.93378"
       x="0"
       y="0"
       inkscape:label="rect1440" /></g><g
     inkscape:groupmode="layer"
     id="layer5"
     inkscape:label="XO"><path
       d="m 114.50952,195.01567 c 0,-1.56939 5.6333,-11.62425 9.97077,-19.51798 4.33747,-7.89372 8.05999,-14.7334 8.27226,-15.19928 0.34582,-0.75899 -0.47086,-2.42164 -7.8562,-15.99411 -4.53318,-8.33089 -8.60285,-15.98556 -9.04372,-17.01038 -0.91142,-2.11867 -1.38493,-2.95993 -0.0963,-3.44986 0.61747,-0.23475 5.64621,-0.276 7.62362,-0.33711 1.9774,-0.0611 5.60363,-0.20309 6.39614,0.017 1.55632,0.43218 0.80196,-0.36692 9.12318,15.11232 3.29847,6.13586 6.0766,11.15633 6.17361,11.1566 0.097,2.7e-4 2.71639,-5.00751 5.82083,-11.1284 7.61305,-15.0103 7.34582,-14.37701 8.90487,-14.94107 0.79073,-0.28608 2.23194,-0.36859 6.45066,-0.37013 4.21872,-0.002 5.21424,0.12192 5.83661,0.13865 2.49791,0.0672 1.66911,1.40456 1.23858,2.49887 -0.87418,2.22194 -3.91732,7.41036 -9.12799,16.90776 -4.16124,7.58464 -7.88316,14.43823 -8.27091,15.2302 l -0.70501,1.43995 8.38804,15.317 c 6.29864,11.50161 8.79681,17.44609 9.85019,19.82718 0.20438,0.462 1.01604,2.27875 -0.7961,2.73391 -0.47663,0.11971 -2.73053,0.23549 -6.1098,0.23995 -3.37926,0.004 -4.77189,0.0474 -5.52012,-0.15733 -2.37752,-0.6505 -2.09755,-1.01593 -3.3012,-2.63378 -0.50746,-0.68208 -3.02985,-5.04122 -6.88465,-12.36566 -3.8548,-7.32444 -7.0881,-13.31716 -7.18511,-13.31716 -0.097,0 -3.33031,5.99272 -7.18511,13.31716 -3.8548,7.32444 -6.48247,12.34426 -6.76265,12.95594 -1.08512,2.36901 -1.65199,2.08077 -3.25293,2.20942 -0.46895,0.0377 -2.98994,-0.0418 -4.81591,-0.0102 -2.12841,0.0369 -5.79243,-0.005 -6.21339,-0.14165 -1.9019,-0.61541 -0.92226,-1.65234 -0.92226,-2.5278 z"
       style="display:inline;fill:#00a2e8;fill-opacity:1;fill-rule:nonzero;stroke:none;stroke-width:0.353;stroke-dasharray:none;stroke-opacity:1"
       id="path1110"
       sodipodi:nodetypes="ssssssscssssccssscssscsssssssccss"
       inkscape:label="X2" /><path
       d="m 29.797073,193.87638 c -5.507711,-3.11082 -9.940121,-8.41667 -12.680701,-14.11766 -3.15334,-6.55962 -3.71574,-12.68608 -3.57305,-21.54027 0.14269,-8.85419 1.16731,-17.13427 4.85045,-23.59418 3.38358,-5.9345 6.72014,-8.50674 12.742611,-11.73112 4.54562,-2.43369 10.047548,-3.93457 17.406938,-3.9247 6.8535,0.009 11.98849,2.31752 16.845659,5.71949 4.57664,3.20549 8.29911,7.93474 10.48957,13.07505 2.69559,6.32571 2.70593,12.41873 2.66477,20.45546 -0.0412,8.03674 0.0411,15.61615 -3.1364,22.48391 -2.36618,5.1142 -6.4487,9.66799 -11.2493,12.61895 -4.587759,2.82012 -9.698029,4.04013 -15.614299,4.14714 -3.5073,0.0634 -13.206388,-0.46309 -18.746248,-3.59207 z M 58.164541,180.9901 c 2.79755,-2.08241 4.69252,-5.39036 5.831579,-8.6866 1.53769,-4.44978 1.05188,-9.98159 1.0472,-14.08505 -0.005,-4.10346 0.69237,-11.06971 -1.462609,-16.11445 -1.17486,-2.75033 -3.51646,-4.94556 -6.03433,-6.55953 -2.63001,-1.68585 -6.56386,-3.09832 -9.00306,-3.07602 -3.19322,0.0292 -6.8476,0.3272 -9.826398,1.81808 -3.69516,1.84941 -7.14983,4.76875 -9.1113,8.40568 -2.489931,4.61678 -2.542331,10.91538 -2.562301,15.52624 -0.02,4.61086 -0.1951,9.53469 1.640901,13.78079 1.69823,3.92747 4.54967,7.68353 8.24726,9.83684 3.40071,1.98041 7.280648,2.26638 11.611838,2.13237 3.82499,-0.11834 6.92818,-0.97374 9.62122,-2.97835 z"
       style="display:inline;fill:#ed1c24;fill-opacity:1;fill-rule:nonzero;stroke:none;stroke-width:0.353;stroke-dasharray:none;stroke-opacity:1"
       id="path1054"
       sodipodi:nodetypes="ssssscsscsssssscssssscssss"
       inkscape:label="O2" /><path
       d="m 124.75947,88.483315 c -5.50771,-3.11082 -9.94012,-8.416669 -12.6807,-14.117659 -3.15334,-6.55962 -3.71574,-12.68608 -3.57305,-21.54027 0.14269,-8.85419 1.16731,-17.13427 4.85045,-23.59418 3.38358,-5.934499 6.72014,-8.506739 12.74261,-11.731119 4.54562,-2.43369 10.04755,-3.93457 17.40694,-3.9247 6.8535,0.009 11.98849,2.31752 16.84566,5.71949 4.57664,3.20549 8.29911,7.93474 10.48957,13.075049 2.69559,6.32571 2.70593,12.41873 2.66477,20.45546 -0.0412,8.03674 0.0411,15.61615 -3.1364,22.48391 -2.36618,5.1142 -6.4487,9.667989 -11.2493,12.618949 -4.58776,2.82012 -9.69803,4.04013 -15.6143,4.14714 -3.5073,0.0634 -13.20639,-0.46309 -18.74625,-3.59207 z m 28.36747,-12.886279 c 2.79755,-2.08241 4.69252,-5.39036 5.83158,-8.6866 1.53769,-4.44978 1.05188,-9.98159 1.0472,-14.08505 -0.005,-4.10346 0.69237,-11.069709 -1.46261,-16.114449 -1.17486,-2.75033 -3.51646,-4.945561 -6.03433,-6.559531 -2.63001,-1.68585 -6.56386,-3.098319 -9.00306,-3.076019 -3.19322,0.0292 -6.8476,0.3272 -9.8264,1.818079 -3.69516,1.84941 -7.14983,4.76875 -9.1113,8.40568 -2.48993,4.61678 -2.54233,10.91538 -2.5623,15.52624 -0.02,4.61086 -0.1951,9.53469 1.6409,13.78079 1.69823,3.92747 4.54967,7.68353 8.24726,9.83684 3.40071,1.98041 7.28065,2.26638 11.61184,2.13237 3.82499,-0.11834 6.92818,-0.97374 9.62122,-2.97835 z"
       style="display:inline;fill:#ed1c24;fill-opacity:1;fill-rule:nonzero;stroke:none;stroke-width:0.353;stroke-dasharray:none;stroke-opacity:1"
       id="path1021"
       sodipodi:nodetypes="ssssscssssssssscssssssssss"
       inkscape:label="O1" /><path
       d="m 13.587902,85.190829 c 0,-1.56938 5.6333,-11.62424 9.97077,-19.51798 4.33747,-7.89372 8.059991,-14.733401 8.272261,-15.199281 0.34582,-0.75899 -0.47086,-2.42164 -7.856201,-15.994109 -4.53318,-8.330889 -8.60285,-15.98556 -9.04372,-17.01038 -0.91142,-2.11867 -1.38493,-2.95993 -0.0963,-3.44986 0.61747,-0.23475 5.64621,-0.276 7.62362,-0.33711 1.9774,-0.0611 5.603631,-0.20309 6.396141,0.017 1.55632,0.43218 0.80196,-0.36692 9.12318,15.11232 3.29847,6.13586 6.0766,11.156329 6.17361,11.156599 0.097,2.7e-4 2.71639,-5.007509 5.82083,-11.128399 7.61305,-15.0103 7.34582,-14.37701 8.90487,-14.94107 0.79073,-0.28608 2.23195,-0.36859 6.45067,-0.37013 4.218716,-0.002 5.214236,0.12192 5.836616,0.13865 2.49791,0.0672 1.66911,1.40456 1.23858,2.49887 -0.87418,2.22194 -3.917325,7.41036 -9.127996,16.90776 -4.16125,7.584639 -7.883166,14.43823 -8.27092,15.230199 l -0.70501,1.43995 8.38805,15.317001 c 6.298636,11.501625 8.796806,17.44609 9.850196,19.82718 0.20438,0.462 1.01604,2.27875 -0.7961,2.73391 -0.47663,0.11971 -2.73053,0.23549 -6.109806,0.23995 -3.37926,0.004 -4.77189,0.0474 -5.52013,-0.15733 -2.37752,-0.6505 -2.09755,-1.01593 -3.3012,-2.63378 -0.50746,-0.68208 -3.02985,-5.04122 -6.88465,-12.36565 -3.8548,-7.32445 -7.0881,-13.31717 -7.18511,-13.31717 -0.097,0 -3.33031,5.99272 -7.18511,13.31717 -3.8548,7.32443 -6.48247,12.34425 -6.76265,12.95593 -1.085121,2.36901 -1.651991,2.08077 -3.252931,2.20942 -0.46895,0.0377 -2.98994,-0.0418 -4.81591,-0.0102 -2.12841,0.0369 -5.79243,-0.005 -6.21339,-0.14165 -1.9019,-0.61541 -0.92226,-1.65233 -0.92226,-2.5278 z"
       style="display:inline;fill:#00a2e8;fill-opacity:1;fill-rule:nonzero;stroke:none;stroke-width:0.353;stroke-dasharray:none;stroke-opacity:1"
       id="path988"
       sodipodi:nodetypes="ssssssscssssccssscssscsssssssccss"
       inkscape:label="X1" /></g><metadata
     id="metadata1691"><rdf:RDF><cc:Work
         rdf:about=""><cc:license
           rdf:resource="http://creativecommons.org/licenses/by-sa/4.0/" /></cc:Work><cc:License
         rdf:about="http://creativecommons.org/licenses/by-sa/4.0/"><cc:permits
           rdf:resource="http://creativecommons.org/ns#Reproduction" /><cc:permits
           rdf:resource="http://creativecommons.org/ns#Distribution" /><cc:requires
           rdf:resource="http://creativecommons.org/ns#Notice" /><cc:requires
           rdf:resource="http://creativecommons.org/ns#Attribution" /><cc:permits
           rdf:resource="http://creativecommons.org/ns#DerivativeWorks" /><cc:requires
           rdf:resource="http://creativecommons.org/ns#ShareAlike" /></cc:License></rdf:RDF></metadata></svg>
