<?xml version="1.0" encoding="UTF-8" standalone="no"?>
<!-- Created with Inkscape (http://www.inkscape.org/) -->

<svg
   xmlns:dc="http://purl.org/dc/elements/1.1/"
   xmlns:cc="http://creativecommons.org/ns#"
   xmlns:rdf="http://www.w3.org/1999/02/22-rdf-syntax-ns#"
   xmlns:svg="http://www.w3.org/2000/svg"
   xmlns="http://www.w3.org/2000/svg"
   xmlns:sodipodi="http://sodipodi.sourceforge.net/DTD/sodipodi-0.dtd"
   xmlns:inkscape="http://www.inkscape.org/namespaces/inkscape"
   width="100.54167mm"
   height="84.666649mm"
   viewBox="0 0 100.54167 84.666649"
   version="1.1"
   id="svg8"
   inkscape:version="0.92.5 (2060ec1f9f, 2020-04-08)"
   sodipodi:docname="404.img.svg">
  <defs
     id="defs2" />
  <sodipodi:namedview
     id="base"
     pagecolor="#ffffff"
     bordercolor="#666666"
     borderopacity="1.0"
     inkscape:pageopacity="0.0"
     inkscape:pageshadow="2"
     inkscape:zoom="1.4"
     inkscape:cx="125.49097"
     inkscape:cy="162.81945"
     inkscape:document-units="mm"
     inkscape:current-layer="layer1"
     showgrid="false"
     fit-margin-top="0"
     fit-margin-left="0"
     fit-margin-right="0"
     fit-margin-bottom="0"
     inkscape:window-width="1920"
     inkscape:window-height="1015"
     inkscape:window-x="0"
     inkscape:window-y="0"
     inkscape:window-maximized="1" />
  <metadata
     id="metadata5">
    <rdf:RDF>
      <cc:Work
         rdf:about="">
        <dc:format>image/svg+xml</dc:format>
        <dc:type
           rdf:resource="http://purl.org/dc/dcmitype/StillImage" />
        <dc:title></dc:title>
      </cc:Work>
    </rdf:RDF>
  </metadata>
  <g
     inkscape:label="Layer 1"
     inkscape:groupmode="layer"
     id="layer1"
     transform="translate(-51.423667,-86.977529)">
    <path
       style="fill:#ffffff;stroke-width:0.26458332;fill-opacity:1"
       d="M 51.423667,129.31085 V 86.977529 h 50.270843 50.27083 v 42.333321 42.33333 H 101.69451 51.423667 Z m 79.375003,34.39583 v -2.64583 h 2.64583 2.64584 v 2.64583 2.64584 h 5.29166 5.29167 v -10.58334 -10.58333 h -2.64583 -2.64584 v -2.64583 -2.64584 h 2.64584 2.64583 V 116.08169 92.269199 H 101.69451 56.715337 v 23.812491 23.81249 h 2.64583 2.64584 v 2.64584 2.64583 h -2.64584 -2.64583 v 10.58333 10.58334 h 37.04167 37.041663 z m -5.29167,-5.29166 v -2.64584 h -2.64583 -2.64583 v -2.64583 -2.64583 h -2.64584 -2.64583 v -2.64584 -2.64583 h -2.64583 -2.64584 v -2.64583 -2.64584 h -2.64583 -2.64583 v -2.64583 -2.64583 h -2.64583 -2.645843 v -2.64584 -2.64583 h -2.64583 -2.64583 v -2.64583 -2.64583 h -2.64584 -2.64583 v -2.64584 -2.64583 h -2.64583 -2.64584 v 2.64583 2.64584 h -2.64583 -2.64583 v 2.64583 2.64583 h -2.64584 -2.64583 v 2.64583 2.64584 h -2.64583 -2.64584 v 2.64583 2.64583 h -2.64583 -2.64583 v -2.64583 -2.64583 h 2.64583 2.64583 v -2.64584 -2.64583 h 2.64584 2.64583 v -2.64583 -2.64583 h 2.64583 2.64584 v -2.64584 -2.64583 h 2.64583 2.64583 v -2.64583 -2.64584 h 2.64584 2.64583 v 2.64584 2.64583 h 2.64583 2.64584 v 2.64583 2.64584 h 2.64583 2.64583 v 2.64583 2.64583 h 2.645843 2.64583 v 2.64583 2.64584 h 2.64583 2.64583 v 2.64583 2.64583 h 2.64584 2.64583 v -2.64583 -2.64583 h 2.64583 2.64584 v -2.64584 -2.64583 h 2.64583 2.64583 v -2.64583 -2.64583 h 2.64584 2.64583 v 2.64583 2.64583 h 2.64583 2.64584 v 2.64583 2.64584 h 2.64583 2.64583 v 2.64583 2.64583 h -2.64583 -2.64583 v -2.64583 -2.64583 h -2.64584 -2.64583 v -2.64584 -2.64583 h -2.64583 -2.64584 v 2.64583 2.64584 h -2.64583 -2.64583 v 2.64583 2.64583 h -2.64584 -2.64583 v 2.64584 2.64583 h 2.64583 2.64584 v 2.64583 2.64584 h 2.64583 2.64583 v 2.64583 2.64583 h 2.64584 2.64583 v 2.64584 2.64583 h -2.64583 -2.64584 z m -15.875,-37.04167 v -2.64583 h 2.64584 2.64583 v 2.64583 2.64584 h -2.64583 -2.64584 z m 0,-10.58333 v -2.64583 h 2.64584 2.64583 v -2.64583 -2.64583 h -5.29167 -5.29166 v -2.64583 -2.645841 h 7.9375 7.9375 v 5.291671 5.29166 h -2.64584 -2.64583 v 2.64583 2.64583 h -2.64583 -2.64584 z"
       id="path826"
       inkscape:connector-curvature="0"
       inkscape:transform-center-x="9.827381"
       inkscape:transform-center-y="-12.095238" />
  </g>
</svg>
